# xmcd
# Track frame offsets:
# 150
# 10075
# 24008
# 37245
# 50464
# 63379
# 75108
# 88324
# 101457
# 117417
# 132480
# 144971
# 159028
# 172833
# 186752
# 201260
#
# Disc length: 2837 seconds
# Revision: 0
# Processed by: cddbd v1.5.1PL2 Copyright (c) Steve Scherf et al.
# Submitted via: VisiTrax 2.9.10.228 - For more info visit www.synapsa.com
#
DISCID=c30b1310
DTITLE=Various Artist - O Brother - CD2
DYEAR=2005
DGENRE=
TTITLE0=Lonesome Valley - The Monroe Brothers
TTITLE1=Shake It And Break It (But Don't Let It Fall Mama) - Charley Patton
TTITLE2=My Dixie Darling - The Carter Family
TTITLE3=I'll Fly Away - Brown's Ferry Four
TTITLE4=Tom Cat Blues - Cliff Carlisle
TTITLE5=Roll All Burdens Away - The Fairfield Four
TTITLE6=Coo Coo Bird - Clarence Ashley
TTITLE7=Rounder's Blues - The Delmore Brothers
TTITLE8=Stop And Listen Blues - The Mississippi Sheiks
TTITLE9=I Wish I Was A Mole In The Ground - Bascom Lamar Lunsford
TTITLE10=I Looked Down The Line - The Dixie Hummingbirds
TTITLE11=Danville Girl - Dock Boggs
TTITLE12=Keep Your Lamp Trimmed And Burning - Blind Willie Johnson
TTITLE13=Ride Old Buck To Water - Gid Tanner and The Skillet Lickers
TTITLE14=Take A Drink On Me - Charlie Poole
TTITLE15=Golden Gate Gospel Train - Golden Gate Quartet
EXTD=
EXTT0=
EXTT1=
EXTT2=
EXTT3=
EXTT4=
EXTT5=
EXTT6=
EXTT7=
EXTT8=
EXTT9=
EXTT10=
EXTT11=
EXTT12=
EXTT13=
EXTT14=
EXTT15=
PLAYORDER=
